<svg xmlns="http://www.w3.org/2000/svg" xmlns:xlink="http://www.w3.org/1999/xlink" viewBox="0 0 340.72 235.17"><defs><style>.cls-1,.cls-11,.cls-12,.cls-29{fill:none;}.cls-2{isolation:isolate;}.cls-3{fill:#efba9c;}.cls-4{fill:#be7867;}.cls-5{fill:#aa695c;}.cls-6,.cls-7{fill:#7ed7c5;}.cls-10,.cls-25,.cls-28,.cls-34,.cls-37,.cls-38,.cls-39,.cls-7{mix-blend-mode:multiply;}.cls-8{fill:#3b4d5a;}.cls-9{fill:#23313a;}.cls-10{fill:#1691a5;}.cls-11,.cls-12{stroke:#1c90a3;}.cls-11{stroke-miterlimit:10;}.cls-11,.cls-12,.cls-29{stroke-width:0.77px;}.cls-12,.cls-29{stroke-linecap:round;stroke-linejoin:round;}.cls-13{fill:#472620;}.cls-14{fill:#d3584f;}.cls-15{fill:#8e2a28;}.cls-16{fill:#f6c5a4;}.cls-17{fill:#ddac8a;}.cls-18,.cls-25{fill:#93ba49;}.cls-19{fill:#fff;}.cls-20{fill:#619de5;}.cls-21{fill:#3d6aa0;}.cls-22{fill:#acdd5e;}.cls-23{fill:#302667;}.cls-24{fill:#29235e;}.cls-26{clip-path:url(#clip-path);}.cls-27{fill:#f5e477;}.cls-28{fill:#bf4643;}.cls-29{stroke:#822e2c;}.cls-30{fill:#654399;}.cls-31{fill:#597230;}.cls-32{fill:#4c78b9;}.cls-33{fill:#3a6691;}.cls-34{fill:#edd69d;}.cls-35{fill:#593f8c;}.cls-36{fill:#ead56c;}.cls-37{fill:#ceb786;}.cls-39{fill:#f0b331;}</style><clipPath id="clip-path"><path class="cls-1" d="M172.61,178.71c-6.26-15-8-25.06-4.17-44.2s-2.79-32.36-22.27-34.45c0,0-.35-.7-7.66,0-7.31-.7-7.66,0-7.66,0-19.48,2.09-26.1,15.31-22.27,34.45s2.09,29.23-4.17,44.2-9.75,45.59-9.75,45.59h87.7S178.88,193.67,172.61,178.71Z"/></clipPath></defs><g class="cls-2"><g id="Layer_2" data-name="Layer 2"><g id="Layer_4" data-name="Layer 4"><path class="cls-3" d="M62.75,224.3H211.54c18-2.73,35.53-7,51.26-14.06,50.73-22.86,80.54-73.64,77.74-117.41A87.9,87.9,0,0,0,323.17,46c-10.95-14.79-27.9-25-47.93-32.27C240.93,1.2,201.67-1.19,163.69.47c-29.4,1.28-59.27,5-85.14,15.72C46.81,29.32,23.17,52.41,10.94,78.25c-10.72,22.65-13,47.25-9.24,71C5.31,172,20.65,193.06,39.1,211A54.55,54.55,0,0,0,62.75,224.3Z"/><path class="cls-4" d="M18.14,134.33c-1.29,1.89-2.51,3.82-3.71,5.77A118.52,118.52,0,0,0,7.84,152a15.16,15.16,0,0,0-1.41,3.35,4.5,4.5,0,0,0,.39,2.68c.46,1.08.93,2.17,1.41,3.24q2.19,4.94,4.63,9.74c2,3.93,4.15,7.8,6.5,11.53A69.63,69.63,0,0,0,27,192.88a34,34,0,0,0,3.38,3.19s5.21,1,6.24-3.83l-17.2-34.1,14-17.2S24.9,129.62,18.14,134.33Z"/><path class="cls-5" d="M30.42,196.07s5.21,1,6.24-3.83l-10.49-20.8c-.94,4.32-2.12,9.56-3.59,15.93A59.29,59.29,0,0,0,27,192.88,34,34,0,0,0,30.42,196.07Z"/><path class="cls-5" d="M26.53,149.49l7-8.55s-8.61-11.32-15.37-6.61c-1.06,1.55-2.07,3.14-3.06,4.73A72.81,72.81,0,0,0,26.53,149.49Z"/><path class="cls-6" d="M31.21,110.43s-13.34,16.12-16.6,24c0,0,5.47,6.17,16.6,9.2C31.21,143.68,36.39,119.59,31.21,110.43Z"/><path class="cls-7" d="M33.43,120A122.76,122.76,0,0,1,20.8,139.27a41.3,41.3,0,0,0,10.41,4.41S34,130.59,33.43,120Z"/><path class="cls-8" d="M90.74,200.5s3.48,18,3.92,23.8H33.86s-6.31-10-1.84-24.61S90.74,200.5,90.74,200.5Z"/><path class="cls-9" d="M90.74,200.5S36.49,185.13,32,199.69a36.75,36.75,0,0,0-1.48,7.58c8.69,1.24,32.81,3.89,56.44-.53,0,0,2,9.24,3,17.56h4.71C94.22,218.5,90.74,200.5,90.74,200.5Z"/><path class="cls-6" d="M27.12,117.86s2.36-14.24,23.17-14.11,41.24-1,42,19.38,6.68,58.12,4.32,77.76c0,0-35.34,8.24-69.51,2.35,0,0,2.75-42.41,0-58.12C27.12,145.12,25.94,126.73,27.12,117.86Z"/><path class="cls-10" d="M104.9,125.22s-27.8,5.1-40.34,5.67c0,0-19.49-1-33.35-20.46L64,126l38.5-4Z"/><path class="cls-7" d="M82.26,125.22s5.45,24.26,9.9,36.8a101.76,101.76,0,0,1,5,22.83c-.48-17-3.14-38.1-4.32-53.73Z"/><path class="cls-6" d="M81.48,106.76s12.85,4.53,17.79,10.94,9.14,12.38,9.14,12.38-4.09,11.15-16,13.6C92.44,143.68,74.72,120.4,81.48,106.76Z"/><path class="cls-4" d="M53.27,98.19l-.77,7.65s3,3.92,13.76.17l-1.74-8.3Z"/><path class="cls-5" d="M53.27,98.19,52.68,104a6.69,6.69,0,0,0,3.26.43c2.23-.18,4.39-1.12,6.66-.85,1,.12,2,.48,3,.62l.27,0-1.36-6.49Z"/><path class="cls-11" d="M49.37,103.75s-1.68,5.22,9.35,5.56,10.19-5.13,10.19-5.13"/><path class="cls-12" d="M27,142s-1.06-16.25,0-22.62"/><path class="cls-4" d="M46.68,95.47c7.74,6.53,20.82,6.22,27.24-1.6a26.39,26.39,0,0,0,4.35-8.55A39.48,39.48,0,0,0,80.34,68.2a24.74,24.74,0,0,0-7.51-15.28,21.11,21.11,0,0,0-22.54-3.41C34.55,56.85,34.23,85,46.68,95.47Z"/><path class="cls-13" d="M76.09,43.19a1.87,1.87,0,0,1,.55,2.47c-.39.85-1.1,1.53-1.48,2.38,1.3-.29,2.61-.54,3.93-.73.57-.09,1.37,0,1.41.58a1.1,1.1,0,0,1-.41.77L77.81,51c1-.5,2.36.54,2.44,1.71a3.49,3.49,0,0,1-1.67,2.9c-2.42,1.72-5.17,1.7-5.42,5.28-.12,1.67.14,3.46-.66,4.94-.93,1.71-3,2.47-4.1,4.1-1.59,2.42-.35,5.71-1.09,8.51a1.64,1.64,0,0,1-.73,1.11c-.93.46-1.81-.83-1.82-1.88s.25-2.25-.48-3a2,2,0,0,0-2.86.4c-1.64,2-2.12,6.34-.65,8.46.95,1.35,2.4,2.24,1.62,4.11-.43,1-1.24,1.85-1.6,2.9s-.22,2.45-.72,3.55c-.87,1.87-3.42,2.4-5.37,1.73A11.52,11.52,0,0,0,52.38,95c-1.38-.18-2.7.55-4,1.12s-2.81,1-4,.28a13.65,13.65,0,0,1-1.49-1.36,3.92,3.92,0,0,0-3.72-.72c-.82.27-1.64.84-2.49.64-2.87-.66.83-6.12,1.61-7.1a26.87,26.87,0,0,0,3.54-5.76C43.64,78.2,44.48,73.9,46.3,70a39.74,39.74,0,0,1,5.12-7.86c3-3.74,6.42-7.39,10.91-9.24,3.41-1.4,7.26-1.41,9.33-4.81C72.42,46.85,74,42.2,76.09,43.19Z"/><path class="cls-14" d="M71.57,48.75s8.81,7.5-9.09,28.87S36.66,87.84,36.66,87.84a7,7,0,0,1,0-6.19s-6.22-22.16,1.2-30,25.17-7.5,30.2-4C68.06,47.67,70.88,46.28,71.57,48.75Z"/><path class="cls-15" d="M68.06,48.5s-8,40.24-31.93,34.44C36.13,82.94,55.89,86.17,68.06,48.5Z"/><path class="cls-16" d="M324.45,125s8.43,23.95,9.85,31.27-20,33.39-23.64,36.83a4.27,4.27,0,0,1-3.46-3.24c-.59-2.83,16.39-33.59,16.39-33.59L313.1,133.13Z"/><path class="cls-17" d="M318.36,166c-4.94,9.27-11.53,22.12-11.16,23.9a4.27,4.27,0,0,0,3.46,3.24A142,142,0,0,0,321,180.71a38.39,38.39,0,0,1-2.49-11C318.4,168.43,318.36,167.19,318.36,166Z"/><path class="cls-17" d="M313.1,133.13l7.25,16a31.07,31.07,0,0,1,1.59-5.62,26.91,26.91,0,0,1,5.93-8.51c-1.87-5.6-3.42-10-3.42-10Z"/><path class="cls-18" d="M314.66,105.85s8.64,6.22,13.23,23.49c0,0-3.37,4.75-13.23,8.59,0,0-8-13.59-7.44-24.39S314.66,105.85,314.66,105.85Z"/><path class="cls-19" d="M324.68,128.56a2,2,0,1,1-1.95-2A2,2,0,0,1,324.68,128.56Z"/><path class="cls-19" d="M324.45,123.64a2,2,0,0,0,1.95,2,2.2,2.2,0,0,0,.36,0c-.42-1.27-.86-2.48-1.31-3.61A2,2,0,0,0,324.45,123.64Z"/><path class="cls-16" d="M283.63,95.6l-.78,7.64s3,3.92,13.77.18l-1.75-8.31Z"/><path class="cls-16" d="M275.58,94.38c7.74,6.52,20.82,6.22,27.24-1.61a26.34,26.34,0,0,0,4.35-8.54,39.37,39.37,0,0,0,2.06-17.13,24.73,24.73,0,0,0-7.5-15.28,21.13,21.13,0,0,0-22.55-3.41C263.45,55.75,263.13,83.89,275.58,94.38Z"/><path class="cls-16" d="M263.61,173.64s-2.31,29.84,0,50.66h59.74s4.18-21.15-3.77-31.82-8.67-17.42-9.92-27C309.66,165.46,275.17,161.72,263.61,173.64Z"/><path class="cls-17" d="M298.1,184.51a100,100,0,0,0,15-3.18,43.52,43.52,0,0,1-2.57-9.63,154.62,154.62,0,0,1-29.88.42c-4.1-.39-8.18-1-12.3-1.21l-1.23,0a18.33,18.33,0,0,0-3.51,2.77s-.48,6.27-.79,15.07a45.68,45.68,0,0,1,14.64-3.32C284.33,184.85,291.25,185.19,298.1,184.51Z"/><path class="cls-20" d="M263.61,224.3h59.74s4.18-21.15-3.77-31.82c-1.05-1.4-2-2.72-2.77-4A126.25,126.25,0,0,0,286.05,193c-11.74,3.28-19.23,1.82-23.35.13A246.91,246.91,0,0,0,263.61,224.3Z"/><path class="cls-21" d="M318,220.52a13.08,13.08,0,0,0,3-3.81,76.79,76.79,0,0,1-11.68,4.83,78.9,78.9,0,0,1-11.55,2.76H316a1.87,1.87,0,0,1-.13-.42C315.63,222.52,316.94,221.44,318,220.52Z"/><path class="cls-22" d="M318.35,176.43c-1.76-5.4-2.15-12.09-.1-22.11a86.18,86.18,0,0,0,1.1-28.74c-.47-3.54-1.26-7-2-10.47-.81-3.9.24-7.38-3.6-10a20.62,20.62,0,0,0-6-2.4,39.55,39.55,0,0,0-10.35-1.42c-5.86,0-11.65,1-17.81,2-15.95,2.76-17.49,12.89-19.64,35.6-.8,8.46-.62,22.47-.08,36.71C262.54,177.83,277.38,187.43,318.35,176.43Z"/><path class="cls-19" d="M274.08,179a2,2,0,0,0-1.91,1.55c1.19.22,2.46.42,3.84.59a1.37,1.37,0,0,0,0-.19A2,2,0,0,0,274.08,179Z"/><path class="cls-19" d="M316.58,154.38a2,2,0,0,0,1.31,1.84c.11-.62.23-1.25.36-1.9s.24-1.25.35-1.88h-.07A2,2,0,0,0,316.58,154.38Z"/><path class="cls-19" d="M313.1,176.27a1.94,1.94,0,0,0-2,1.94c1.2-.27,2.42-.56,3.67-.87A1.94,1.94,0,0,0,313.1,176.27Z"/><path class="cls-19" d="M315.59,167.91a2,2,0,0,0,1.42,1.87c-.1-1.17-.15-2.4-.14-3.7A2,2,0,0,0,315.59,167.91Z"/><circle class="cls-19" cx="268.35" cy="170.91" r="1.95"/><path class="cls-19" d="M284.8,172.86a1.95,1.95,0,1,1-1.95-2A2,2,0,0,1,284.8,172.86Z"/><path class="cls-19" d="M305.35,167.91a2,2,0,1,1-2-1.95A2,2,0,0,1,305.35,167.91Z"/><path class="cls-19" d="M299.23,177.84a2,2,0,1,1-2-2A2,2,0,0,1,299.23,177.84Z"/><path class="cls-19" d="M276,160.41a1.95,1.95,0,1,1-1.95-1.95A2,2,0,0,1,276,160.41Z"/><path class="cls-19" d="M261.9,167.91A1.95,1.95,0,1,1,260,166,1.95,1.95,0,0,1,261.9,167.91Z"/><path class="cls-19" d="M300.52,143.42a1.95,1.95,0,1,1-1.95-1.95A1.95,1.95,0,0,1,300.52,143.42Z"/><path class="cls-19" d="M291.69,139.88a2,2,0,1,1-1.95-1.95A2,2,0,0,1,291.69,139.88Z"/><path class="cls-19" d="M299.23,132.46a2,2,0,1,1-2-2A2,2,0,0,1,299.23,132.46Z"/><circle class="cls-19" cx="310.51" cy="137.93" r="1.95"/><circle class="cls-19" cx="317.54" cy="130.51" r="1.95"/><path class="cls-19" d="M299.82,154.38a2,2,0,1,1-2-1.95A2,2,0,0,1,299.82,154.38Z"/><path class="cls-19" d="M286.37,157.2a2,2,0,1,1-2-1.95A2,2,0,0,1,286.37,157.2Z"/><circle class="cls-19" cx="291.41" cy="165.96" r="1.95"/><path class="cls-19" d="M317,146.31a1.95,1.95,0,1,1-1.95-1.95A2,2,0,0,1,317,146.31Z"/><path class="cls-19" d="M263.85,155.25a2,2,0,1,1-2-1.95A1.95,1.95,0,0,1,263.85,155.25Z"/><circle class="cls-19" cx="284.06" cy="146.97" r="1.95"/><path class="cls-19" d="M282.7,135.36a2,2,0,1,1-1.95-2A2,2,0,0,1,282.7,135.36Z"/><circle class="cls-19" cx="309.47" cy="159.16" r="1.95"/><path class="cls-19" d="M272.25,146.54a1.95,1.95,0,1,1-1.95-1.95A2,2,0,0,1,272.25,146.54Z"/><path class="cls-23" d="M316.17,113.05c-1.53-4.68-3.42-9.26-4.28-14.11-1.41-7.94,0-16.16,2.58-23.81,1.32-4,3-8,2.59-12.14-.35-3.73-2.3-7.13-4.55-10.13a26.41,26.41,0,0,0-7.93-7.44,24.05,24.05,0,0,0-13.42-2.62,37.12,37.12,0,0,0-10.76,2,21.07,21.07,0,0,0-9.06,5.58,23,23,0,0,0-6.17,12.18,2.9,2.9,0,0,0,.05,1.6c.72,1.68,9.2,2.69,9.21,2.43a4.67,4.67,0,0,1-1.35,2.52c-.6.77-1.08,1.86-.56,2.68a3.56,3.56,0,0,0,.76.74,5.54,5.54,0,0,1,.94,7.06c3.5-.65,1.5-6,3.93-7.7a3.55,3.55,0,0,1,3.59-.17,5.61,5.61,0,0,0,.68.6,14.47,14.47,0,0,1,1.27,1,4.29,4.29,0,0,1,1,2.66,4.09,4.09,0,0,1-.33,1.47,5,5,0,0,1-2.9,2.43,10.65,10.65,0,0,0-1.08.38h-.47l.15.19a3.78,3.78,0,0,0-.76.68A6.87,6.87,0,0,0,278,83.6a13.84,13.84,0,0,0-.35,3.34c-.08,4.31.1,8.72-.26,13a77,77,0,0,0-.43,12.43,39.27,39.27,0,0,0,3.31,13.07,6.63,6.63,0,0,0,2.54,3.32,7.31,7.31,0,0,0,4,.51c4.45-.29,8.94-.66,13.36,0,2.4.33,4.77.95,7.18,1.1a10.56,10.56,0,0,0,6.94-1.63,9.55,9.55,0,0,0,3.49-7.39A23.81,23.81,0,0,0,316.17,113.05Z"/><path class="cls-24" d="M276.93,112.39a39.27,39.27,0,0,0,3.31,13.07,6.63,6.63,0,0,0,2.54,3.32,7.31,7.31,0,0,0,4,.51c4.45-.29,8.94-.66,13.36,0,2.4.33,4.77.95,7.18,1.1a10.56,10.56,0,0,0,6.94-1.63,9.55,9.55,0,0,0,3.49-7.39,23.81,23.81,0,0,0-1.55-8.27c-1.53-4.68-3.42-9.26-4.28-14.11-1.41-7.94,0-16.16,2.58-23.81,1.32-4,3-8,2.59-12.14a16.15,16.15,0,0,0-1.74-5.68,49.34,49.34,0,0,1-8.85,26.8,20,20,0,0,0-1.79,2.79,37.53,37.53,0,0,0-1.56,4.92c-2.22,6.68-9.07,11-16,12.16a37.21,37.21,0,0,1-10.1.2A56.22,56.22,0,0,0,276.93,112.39Z"/><path class="cls-25" d="M270.14,146c3.2-1.76,7.57-1.71,9.73-4.65.93-1.26,1.26-2.88,2.12-4.19,2.16-3.27,6.72-3.61,10.63-3.81a124.14,124.14,0,0,0,17-2,26.58,26.58,0,0,0,9-3,10.29,10.29,0,0,0,.95-.68c-.08-.69-.14-1.38-.23-2.06-.43-3.27-1.15-6.47-1.82-9.69l-16.16,0c-7.11,0-14.23,0-21.32-.5-5.29-.4-10.63-1.09-15.9-.73-2.32,5.66-3.19,13.57-4.21,24.27-.68,7.2-.65,18.41-.29,30.37,1-4.45,2.23-8.85,3.69-13.18C264.68,152.21,266.48,148,270.14,146Z"/><path class="cls-21" d="M308.12,191.9s9.38,9.67,6,25.74C314.09,217.64,314.51,200.69,308.12,191.9Z"/><path class="cls-14" d="M172.61,178.71c-6.26-15-8-25.06-4.17-44.2s-2.79-32.36-22.27-34.45c0,0-.35-.7-7.66,0-7.31-.7-7.66,0-7.66,0-19.48,2.09-26.1,15.31-22.27,34.45s2.09,29.23-4.17,44.2-9.75,45.59-9.75,45.59h87.7S178.88,193.67,172.61,178.71Z"/><g class="cls-26"><path class="cls-27" d="M94.35,218.11c.61-1.23,2.09-1.42,2.65-2.87a2,2,0,0,0-.13-2,2.08,2.08,0,0,0-2.17-.47,18.27,18.27,0,0,1-2.25.7,4.85,4.85,0,0,1-1.89-.2,2.8,2.8,0,0,1-1.45-.79,2,2,0,0,1,.15-2.48,2.94,2.94,0,0,1,2.49-.82,5.93,5.93,0,0,1,2.49,1,5.17,5.17,0,0,0,.82.48,2,2,0,0,0,2.42-.83c.73-1.22-.35-2.39-.63-3.57a4.28,4.28,0,0,1,1.08-4.23c1.17-1,3.27-.82,3.94.56a3.87,3.87,0,0,1,.26,1.82,23.11,23.11,0,0,1-1,5.95c1.54.6,3-.82,4.29-1.89A5.49,5.49,0,0,1,109,207a2.61,2.61,0,0,1,2.63,2.35c0,1.51-1.7,2.46-3.2,2.59s-3-.26-4.5.07c-.77.17-1.62.75-1.52,1.53s1.09,1.12,1.88,1.34c1.45.42,3,1.35,3.24,2.84a2.52,2.52,0,0,1-4.39,2.09,13.91,13.91,0,0,1-1.29-2.79c-.48-.91-1.72-1.62-2.5-1s-.48,1.54-.58,2.37a2.72,2.72,0,0,1-2.6,2.41A2,2,0,0,1,94.35,218.11Z"/><path class="cls-27" d="M104.89,191.81c.62-1.23,2.1-1.42,2.65-2.87a2,2,0,0,0-.12-2,2.11,2.11,0,0,0-2.18-.47,18.12,18.12,0,0,1-2.24.7,4.83,4.83,0,0,1-1.89-.2,2.8,2.8,0,0,1-1.45-.79,1.94,1.94,0,0,1,.15-2.48,2.92,2.92,0,0,1,2.48-.82,6,6,0,0,1,2.5,1,4.76,4.76,0,0,0,.82.48,2,2,0,0,0,2.42-.82c.73-1.23-.35-2.4-.64-3.58a4.31,4.31,0,0,1,1.09-4.23c1.16-1,3.27-.82,3.94.56a3.87,3.87,0,0,1,.26,1.82,23.11,23.11,0,0,1-1,6c1.54.6,3-.82,4.29-1.89a5.44,5.44,0,0,1,3.51-1.52,2.62,2.62,0,0,1,2.63,2.35c0,1.51-1.7,2.47-3.2,2.59s-3-.25-4.5.07c-.77.18-1.62.75-1.52,1.53s1.09,1.12,1.87,1.34c1.46.42,3,1.35,3.25,2.84a2.53,2.53,0,0,1-4.4,2.09,13.88,13.88,0,0,1-1.28-2.79c-.48-.91-1.72-1.62-2.51-1-.64.54-.47,1.54-.58,2.37a2.73,2.73,0,0,1-2.59,2.42A2.05,2.05,0,0,1,104.89,191.81Z"/><path class="cls-27" d="M125.19,211.07c0-1.38,1.31-2.17,1.21-3.72a2,2,0,0,0-1-1.75,2.1,2.1,0,0,0-2.17.49,18.51,18.51,0,0,1-1.74,1.58,4.78,4.78,0,0,1-1.81.6,2.86,2.86,0,0,1-1.64-.1,2,2,0,0,1-.9-2.32,2.88,2.88,0,0,1,1.91-1.78,6,6,0,0,1,2.69-.12,4.46,4.46,0,0,0,1,.09,2,2,0,0,0,1.84-1.76c.16-1.41-1.32-2-2.07-3a4.26,4.26,0,0,1-.78-4.29,2.63,2.63,0,0,1,3.81-1.14,3.92,3.92,0,0,1,1,1.54,23.77,23.77,0,0,1,1.62,5.81c1.64-.11,2.4-2,3.1-3.52a5.45,5.45,0,0,1,2.55-2.85,2.61,2.61,0,0,1,3.37,1c.61,1.37-.51,2.94-1.82,3.68s-2.86,1.05-4.05,2c-.63.48-1.16,1.35-.74,2s1.45.56,2.26.43c1.5-.23,3.27,0,4.13,1.22a2.52,2.52,0,0,1-3.11,3.74c-.93-.43-1.52-1.37-2.33-2s-2.25-.76-2.68.17c-.36.76.21,1.6.47,2.4A2.72,2.72,0,0,1,128,212.8,2.05,2.05,0,0,1,125.19,211.07Z"/><path class="cls-27" d="M144.89,180.14c-1.28.49-2.5-.35-3.89.35a2,2,0,0,0-1.23,1.56,2.08,2.08,0,0,0,1.3,1.8,17.22,17.22,0,0,1,2.13,1,4.76,4.76,0,0,1,1.27,1.41,2.84,2.84,0,0,1,.55,1.56,2,2,0,0,1-1.78,1.74,2.91,2.91,0,0,1-2.39-1.06,6,6,0,0,1-1.16-2.43,4.82,4.82,0,0,0-.29-.91,2,2,0,0,0-2.35-1c-1.36.42-1.34,2-1.92,3.08a4.28,4.28,0,0,1-3.64,2.41c-1.53,0-3-1.58-2.55-3a3.92,3.92,0,0,1,1-1.53,23.5,23.5,0,0,1,4.71-3.77c-.75-1.48-2.8-1.42-4.45-1.47a5.48,5.48,0,0,1-3.63-1.22,2.6,2.6,0,0,1-.37-3.51c1-1.11,2.91-.69,4.1.22s2.08,2.22,3.39,3c.69.39,1.71.53,2.16-.12s-.06-1.55-.5-2.25c-.8-1.28-1.31-3-.5-4.28a2.52,2.52,0,0,1,4.66,1.4,14.6,14.6,0,0,1-.92,2.93c-.25,1,.19,2.35,1.22,2.39.84,0,1.38-.83,2-1.37a2.72,2.72,0,0,1,3.54-.06A2.05,2.05,0,0,1,144.89,180.14Z"/><path class="cls-27" d="M142.19,148.6c-1.28.5-2.51-.35-3.89.35a2.06,2.06,0,0,0-1.24,1.56,2.11,2.11,0,0,0,1.31,1.8,18.81,18.81,0,0,1,2.13,1,4.67,4.67,0,0,1,1.27,1.42,2.78,2.78,0,0,1,.55,1.55,1.94,1.94,0,0,1-1.78,1.74,2.89,2.89,0,0,1-2.39-1.06,6,6,0,0,1-1.16-2.43,5.06,5.06,0,0,0-.29-.91,2,2,0,0,0-2.35-1c-1.36.41-1.34,2-1.92,3.08a4.29,4.29,0,0,1-3.64,2.4c-1.53,0-3-1.58-2.55-3.05a3.79,3.79,0,0,1,1-1.52,23.2,23.2,0,0,1,4.71-3.78c-.75-1.47-2.81-1.42-4.46-1.47a5.42,5.42,0,0,1-3.62-1.22,2.6,2.6,0,0,1-.37-3.51c1-1.1,2.9-.69,4.1.22s2.08,2.22,3.39,3c.69.39,1.71.54,2.15-.11s-.06-1.56-.49-2.25c-.8-1.29-1.31-3-.51-4.28a2.52,2.52,0,0,1,4.66,1.39c0,1-.66,1.93-.91,2.93s.19,2.36,1.22,2.39c.83,0,1.38-.82,2-1.37a2.7,2.7,0,0,1,3.54,0A2,2,0,0,1,142.19,148.6Z"/><path class="cls-27" d="M163,131.07c-1.28.5-2.51-.35-3.89.36A2,2,0,0,0,157.9,133a2.11,2.11,0,0,0,1.31,1.81,20.51,20.51,0,0,1,2.13,1,4.67,4.67,0,0,1,1.27,1.42,2.89,2.89,0,0,1,.55,1.55,2,2,0,0,1-1.78,1.75,2.91,2.91,0,0,1-2.39-1.06,5.83,5.83,0,0,1-1.16-2.43,4,4,0,0,0-.3-.91,2,2,0,0,0-2.34-1c-1.36.42-1.34,2-1.93,3.08a4.29,4.29,0,0,1-3.64,2.41c-1.52,0-3-1.59-2.54-3.06a3.85,3.85,0,0,1,1-1.52,23.48,23.48,0,0,1,4.7-3.78c-.74-1.47-2.8-1.41-4.45-1.47a5.45,5.45,0,0,1-3.63-1.22,2.62,2.62,0,0,1-.37-3.51c1-1.1,2.91-.69,4.11.22s2.08,2.23,3.39,3c.69.39,1.7.53,2.15-.12s-.06-1.56-.49-2.25c-.8-1.29-1.31-3-.51-4.28a2.52,2.52,0,0,1,4.66,1.39,13.6,13.6,0,0,1-.91,2.93c-.25,1,.19,2.36,1.21,2.39.84,0,1.39-.82,2-1.37a2.74,2.74,0,0,1,3.55,0A2,2,0,0,1,163,131.07Z"/><path class="cls-27" d="M123.24,137.69c-1-.91-.84-2.39-2.1-3.29a2,2,0,0,0-2-.39,2.09,2.09,0,0,0-1,2,18.48,18.48,0,0,1,.1,2.35,4.62,4.62,0,0,1-.68,1.77,2.68,2.68,0,0,1-1.13,1.2,2,2,0,0,1-2.36-.77,2.91,2.91,0,0,1-.15-2.62,5.85,5.85,0,0,1,1.62-2.14,4.86,4.86,0,0,0,.68-.68,2.06,2.06,0,0,0-.18-2.55c-1-1-2.41-.27-3.63-.29a4.29,4.29,0,0,1-3.8-2.13c-.67-1.38,0-3.37,1.54-3.67a3.91,3.91,0,0,1,1.82.21,23.3,23.3,0,0,1,5.52,2.45c1-1.34,0-3.14-.74-4.63a5.47,5.47,0,0,1-.58-3.78,2.6,2.6,0,0,1,3-1.94c1.45.4,2,2.26,1.69,3.74s-1,2.87-1.08,4.38c0,.79.31,1.76,1.09,1.85s1.36-.76,1.77-1.46c.78-1.31,2.06-2.54,3.57-2.42a2.52,2.52,0,0,1,.9,4.78,13.64,13.64,0,0,1-3,.53c-1,.24-2,1.25-1.56,2.18.36.76,1.36.85,2.14,1.17a2.71,2.71,0,0,1,1.67,3.12A2,2,0,0,1,123.24,137.69Z"/><path class="cls-27" d="M122.19,162.13c-1.28.49-2.51-.35-3.89.35a2,2,0,0,0-1.24,1.56,2.1,2.1,0,0,0,1.3,1.8,18.07,18.07,0,0,1,2.14,1,5,5,0,0,1,1.27,1.42,2.85,2.85,0,0,1,.54,1.55,2,2,0,0,1-1.77,1.74,2.9,2.9,0,0,1-2.39-1.06,5.85,5.85,0,0,1-1.17-2.43,4.82,4.82,0,0,0-.29-.91,2,2,0,0,0-2.34-1c-1.37.42-1.34,2-1.93,3.08a4.27,4.27,0,0,1-3.64,2.41,2.63,2.63,0,0,1-2.55-3.05,3.91,3.91,0,0,1,1-1.52,23.14,23.14,0,0,1,4.7-3.78c-.74-1.47-2.8-1.42-4.45-1.47a5.5,5.5,0,0,1-3.63-1.22,2.6,2.6,0,0,1-.37-3.51c1-1.11,2.91-.69,4.11.22s2.08,2.22,3.39,3c.69.39,1.7.53,2.15-.12s-.06-1.55-.49-2.25c-.81-1.28-1.31-3-.51-4.27a2.52,2.52,0,0,1,4.66,1.39,14.37,14.37,0,0,1-.91,2.93c-.25,1,.18,2.36,1.21,2.39.84,0,1.39-.83,2-1.37a2.73,2.73,0,0,1,3.55-.06A2.06,2.06,0,0,1,122.19,162.13Z"/><path class="cls-27" d="M185.78,210.15c-1.29.49-2.51-.35-3.9.35a2.07,2.07,0,0,0-1.23,1.56,2.1,2.1,0,0,0,1.3,1.8,18.07,18.07,0,0,1,2.14,1,5,5,0,0,1,1.27,1.42,2.85,2.85,0,0,1,.54,1.55,2,2,0,0,1-1.77,1.74,2.9,2.9,0,0,1-2.39-1.06,5.85,5.85,0,0,1-1.17-2.43,4.82,4.82,0,0,0-.29-.91,2,2,0,0,0-2.34-1c-1.37.42-1.35,2-1.93,3.09a4.28,4.28,0,0,1-3.64,2.4,2.63,2.63,0,0,1-2.55-3,4,4,0,0,1,1-1.52,23.48,23.48,0,0,1,4.71-3.78c-.74-1.47-2.8-1.42-4.45-1.47a5.48,5.48,0,0,1-3.63-1.22,2.6,2.6,0,0,1-.37-3.51c1-1.1,2.91-.69,4.1.22s2.09,2.22,3.4,3c.68.39,1.7.53,2.15-.12s-.06-1.55-.49-2.24c-.81-1.29-1.31-3-.51-4.28a2.52,2.52,0,0,1,4.66,1.39c0,1-.67,1.93-.91,2.93s.18,2.36,1.21,2.39c.84,0,1.39-.83,2-1.37a2.72,2.72,0,0,1,3.54-.06A2,2,0,0,1,185.78,210.15Z"/><path class="cls-27" d="M178.53,174.83c-1.33-.33-1.85-1.73-3.39-1.94a2,2,0,0,0-1.91.57,2.12,2.12,0,0,0,0,2.22,19.9,19.9,0,0,1,1.19,2,5,5,0,0,1,.23,1.89,2.91,2.91,0,0,1-.44,1.59,2,2,0,0,1-2.46.41,2.91,2.91,0,0,1-1.35-2.24,5.81,5.81,0,0,1,.44-2.66,4.79,4.79,0,0,0,.28-.91,2.06,2.06,0,0,0-1.35-2.17c-1.36-.44-2.25.88-3.34,1.42a4.28,4.28,0,0,1-4.36-.11c-1.23-.9-1.53-3-.34-4a3.92,3.92,0,0,1,1.71-.66,23.33,23.33,0,0,1,6-.4c.23-1.64-1.49-2.77-2.81-3.76a5.47,5.47,0,0,1-2.28-3.08,2.6,2.6,0,0,1,1.71-3.08c1.47-.32,2.78,1.09,3.24,2.53s.43,3,1.08,4.37c.34.71,1.09,1.41,1.83,1.13s.85-1.31.89-2.12c.07-1.52.64-3.21,2-3.8a2.52,2.52,0,0,1,3,3.81c-.61.83-1.65,1.2-2.42,1.88s-1.2,2-.37,2.65c.67.51,1.6.12,2.44,0a2.71,2.71,0,0,1,2.93,2A2.05,2.05,0,0,1,178.53,174.83Z"/><path class="cls-27" d="M125.32,229.53c1-1,2.42-.76,3.37-2a2.06,2.06,0,0,0,.45-1.94,2.09,2.09,0,0,0-1.95-1.07,20.47,20.47,0,0,1-2.35,0,4.75,4.75,0,0,1-1.75-.74,2.84,2.84,0,0,1-1.16-1.17,2,2,0,0,1,.86-2.34,2.92,2.92,0,0,1,2.61-.06,5.92,5.92,0,0,1,2.09,1.7,5.47,5.47,0,0,0,.66.7,2,2,0,0,0,2.55-.09c1.05-1,.35-2.4.42-3.61a4.27,4.27,0,0,1,2.26-3.73c1.4-.62,3.37.15,3.61,1.66a4,4,0,0,1-.27,1.82,23.52,23.52,0,0,1-2.64,5.43c1.3,1,3.14.08,4.65-.58a5.49,5.49,0,0,1,3.8-.45,2.62,2.62,0,0,1,1.84,3c-.45,1.43-2.33,1.87-3.81,1.55s-2.83-1.12-4.33-1.23c-.79-.05-1.77.25-1.89,1s.72,1.38,1.4,1.82c1.28.82,2.47,2.15,2.29,3.65a2.52,2.52,0,0,1-4.81.74,14.47,14.47,0,0,1-.42-3c-.2-1-1.18-2-2.12-1.64-.77.33-.9,1.34-1.24,2.1a2.73,2.73,0,0,1-3.18,1.57A2.05,2.05,0,0,1,125.32,229.53Z"/><path class="cls-27" d="M145,214.49c.95-1,2.42-.76,3.37-2a2,2,0,0,0,.45-1.93,2.12,2.12,0,0,0-1.95-1.08,16.78,16.78,0,0,1-2.35,0,4.77,4.77,0,0,1-1.76-.73,2.9,2.9,0,0,1-1.16-1.17,2,2,0,0,1,.86-2.34,2.91,2.91,0,0,1,2.62-.06,5.82,5.82,0,0,1,2.09,1.7,4.71,4.71,0,0,0,.65.69,2,2,0,0,0,2.55-.09c1.06-1,.36-2.39.43-3.61a4.29,4.29,0,0,1,2.26-3.73,2.63,2.63,0,0,1,3.61,1.67,3.89,3.89,0,0,1-.28,1.81,23.49,23.49,0,0,1-2.63,5.43c1.3,1,3.14.08,4.65-.57a5.43,5.43,0,0,1,3.8-.45,2.61,2.61,0,0,1,1.84,3c-.46,1.44-2.34,1.87-3.81,1.56s-2.83-1.12-4.33-1.23c-.79-.06-1.77.25-1.9,1s.72,1.38,1.41,1.82c1.28.82,2.46,2.14,2.29,3.65a2.52,2.52,0,0,1-4.81.73,13.84,13.84,0,0,1-.43-3c-.2-1-1.18-2-2.12-1.65-.77.34-.9,1.34-1.24,2.11a2.72,2.72,0,0,1-3.18,1.56A2,2,0,0,1,145,214.49Z"/><path class="cls-27" d="M166.93,184.29c-1.17.73-2.53.13-3.76,1.08a2,2,0,0,0-.92,1.76,2.1,2.1,0,0,0,1.62,1.53,17.67,17.67,0,0,1,2.28.57,4.81,4.81,0,0,1,1.51,1.15,2.9,2.9,0,0,1,.83,1.43,2,2,0,0,1-1.42,2,2.92,2.92,0,0,1-2.55-.59,6,6,0,0,1-1.6-2.17,4.23,4.23,0,0,0-.45-.84,2,2,0,0,0-2.49-.56c-1.27.67-.95,2.23-1.32,3.39a4.3,4.3,0,0,1-3.13,3,2.64,2.64,0,0,1-3.07-2.53,3.81,3.81,0,0,1,.72-1.68,23.23,23.23,0,0,1,3.92-4.59c-1-1.31-3-.87-4.65-.62a5.38,5.38,0,0,1-3.79-.52,2.59,2.59,0,0,1-1-3.37c.79-1.28,2.72-1.23,4.07-.56s2.46,1.8,3.89,2.28c.74.26,1.77.21,2.09-.52s-.35-1.52-.91-2.11c-1-1.12-1.84-2.7-1.3-4.11a2.52,2.52,0,0,1,4.84.49,13.79,13.79,0,0,1-.35,3.05c-.06,1,.63,2.28,1.64,2.12.83-.13,1.21-1.07,1.73-1.72a2.73,2.73,0,0,1,3.47-.72A2,2,0,0,1,166.93,184.29Z"/><path class="cls-27" d="M167,147c-.83,1.09-2.32,1-3.13,2.34a2,2,0,0,0-.24,2,2.1,2.1,0,0,0,2.06.85,18.48,18.48,0,0,1,2.33-.27,4.68,4.68,0,0,1,1.82.54,2.8,2.8,0,0,1,1.28,1,1.94,1.94,0,0,1-.6,2.41,2.89,2.89,0,0,1-2.59.35,5.8,5.8,0,0,1-2.26-1.46,4.79,4.79,0,0,0-.73-.62,2,2,0,0,0-2.52.36c-.95,1.07-.09,2.42,0,3.64a4.29,4.29,0,0,1-1.84,3.95c-1.33.77-3.37.21-3.77-1.27a3.79,3.79,0,0,1,.07-1.83,23.48,23.48,0,0,1,2-5.68c-1.4-.87-3.13.26-4.56,1.08a5.47,5.47,0,0,1-3.73.85,2.59,2.59,0,0,1-2.15-2.79c.29-1.48,2.11-2.11,3.61-2s2.94.8,4.44.75c.79,0,1.73-.44,1.77-1.23s-.86-1.29-1.59-1.66c-1.36-.67-2.68-1.86-2.67-3.38a2.52,2.52,0,0,1,4.7-1.25,14.69,14.69,0,0,1,.75,3c.31,1,1.4,1.92,2.29,1.41.73-.42.75-1.43,1-2.23a2.74,2.74,0,0,1,3-1.9A2,2,0,0,1,167,147Z"/></g><path class="cls-28" d="M122.37,166.9c11.64,1.89,34.87,3.45,46.14.31q-.75-2.67-1.23-5.32a84.42,84.42,0,0,1-10.58.13c-7.38-.4-33.54-6-46.25-5.74-.56,7.54-2.62,14.26-6,22.43-.18.43-.36.87-.53,1.32C107.57,172.9,113.6,165.49,122.37,166.9Z"/><path class="cls-28" d="M114.12,132.85c5.68,1.57,11.71.78,17.57.16s12-1,17.45,1.27a9.76,9.76,0,0,1,3.74,2.54,18,18,0,0,1,2,3.35,25,25,0,0,0,11.6,11,92,92,0,0,1,2-16.62,42,42,0,0,0,.49-15.83c-8.56-7-20.24-9-31.34-9.88a126.35,126.35,0,0,0-21.92,0c-1.19.11-2.4.27-3.59.49-3.82,5.1-5.17,12-4.26,20.35.19.15.38.32.59.47A17.6,17.6,0,0,0,114.12,132.85Z"/><path class="cls-16" d="M113.2,106s-16.26,2.92-25.68,5c-9.92,2.23-23.63,4.84-23.63,4.84s-18.65-3-28.32-8.85a10.53,10.53,0,0,1,3.86-1.71s-3.49-4.32-8.67,0,14.46,18.78,25.79,22.23,54.38-5.28,54.38-5.28,9.71.64,9.61-7.77S113.2,106,113.2,106Z"/><path class="cls-17" d="M110.93,122.27s9.71.64,9.61-7.77S113.2,106,113.2,106s-7.7,1.38-15.57,2.93a17.37,17.37,0,0,0,2.75,6.94c2.74,3.55-11.25,10.07-33.19,9.42-15.94-.48-24.5-5.53-32.09-10.57,5.71,5.23,14.95,10.84,21.45,12.82C67.88,131,110.93,122.27,110.93,122.27Z"/><path class="cls-29" d="M130.36,125.3s6.21,21.71,5.47,39.08"/><path class="cls-30" d="M126,95.47c7.74,6.53,20.82,6.22,27.24-1.6a26.39,26.39,0,0,0,4.35-8.55,39.48,39.48,0,0,0,2.07-17.12,24.74,24.74,0,0,0-7.51-15.28,21.11,21.11,0,0,0-22.54-3.41C113.84,56.85,113.52,85,126,95.47Z"/><path class="cls-23" d="M123.83,49.35a5.19,5.19,0,0,0,1.43-.61,6,6,0,0,0,1-1.16c3.33-4.36,9.6-5.08,15.06-4.55s11,1.94,16.33.48c1.58-.44,3.19-1.13,4.8-.81a5.51,5.51,0,0,1,3.47,2.72A9.39,9.39,0,0,1,163,57.79c-.88.56-1.95,1.06-2.24,2.06a3.79,3.79,0,0,0,.38,2.34,33.36,33.36,0,0,1,2,10.59,11.1,11.1,0,0,1-.08,3.9c-.47,1.57-1.61,2.85-2,4.45-1,4.2,3.12,8.23,2.55,12.52-.29,2.16-1.73,4-3,5.75-1.34,2-2.55,4-1.14,6.11,1.29,2,3,3.52,4,5.72A12.07,12.07,0,0,1,161.52,124c-4.88,5.56-11,4.64-17.44,3.82a106.38,106.38,0,0,0-22.28-.35,26.16,26.16,0,0,1-5.45.13,11.74,11.74,0,0,1-8.8-6.06,11.33,11.33,0,0,1-.81-8.74c.86-2.39,3.07-4.18,3.69-6.66a5.71,5.71,0,0,0-1.57-5.25c-1.17-1.19-2.85-2-3.51-3.52s0-3.6,1.13-5,2.53-2.55,3.35-4.21,1.65-3.33,2.35-5a37.34,37.34,0,0,0,2.59-12.49c.28-5.63-1.43-10.37,1.89-15.53A13.81,13.81,0,0,1,123.83,49.35Z"/><path class="cls-24" d="M105.35,97.33c.66,1.54,2.34,2.33,3.51,3.52a5.71,5.71,0,0,1,1.57,5.25c-.62,2.48-2.83,4.27-3.69,6.66a11.33,11.33,0,0,0,.81,8.74,11.74,11.74,0,0,0,8.8,6.06,26.16,26.16,0,0,0,5.45-.13,107.06,107.06,0,0,1,22.28.34c6.47.83,12.56,1.75,17.44-3.81a12.07,12.07,0,0,0,2.07-12.73c-1-2.2-2.73-3.76-4-5.72-1.41-2.13-.2-4.15,1.14-6.11,1.23-1.79,2.67-3.59,3-5.75.57-4.29-3.57-8.32-2.55-12.52.39-1.6,1.53-2.88,2-4.45a11.1,11.1,0,0,0,.08-3.9,33.36,33.36,0,0,0-2-10.59,3.79,3.79,0,0,1-.38-2.34c.29-1,1.36-1.5,2.24-2.06a8.81,8.81,0,0,0,3.55-4.59A13.49,13.49,0,0,1,163,56.14c-2,1.1-4.41,1.73-5.65,3.64-2.33,3.61,1.39,8.13,1.43,12.43,0,3.24-2.05,6.07-3.09,9.13-1.69,4.94-1,11.12-4.87,14.58-3.15,2.8-7.91,2.45-12.1,1.93a8.13,8.13,0,0,1-3.94-1.2c-1.14-.86-1.75-2.25-2.79-3.24-3-2.81-7.77-1.32-11.41.51s-8.09,3.81-11.53,1.63a8.66,8.66,0,0,1-2.71-3C105.32,93.91,104.66,95.75,105.35,97.33Z"/><path class="cls-4" d="M166.59,156.61l.3,2.78s-31.54-3.92-48.23-8.26l-11.34-18.8a25.21,25.21,0,0,1-11.87,10.39c2.69,4.79,7.1,11.94,11.76,16.7,0,0,16.64,10.59,61,6.58,0,0,4.33-.52,4.33-4.41S166.59,156.61,166.59,156.61Z"/><path class="cls-5" d="M95.45,142.72c2.69,4.79,7.1,11.94,11.76,16.7,0,0,16.64,10.59,61,6.58,0,0,4.33-.52,4.33-4.41a4,4,0,0,0-.09-.79c-.5,1.87-1.94,3.92-5.83,4.34-7.49.81-35.56-1.51-49.44-5.46a24.11,24.11,0,0,1-16.87-16c4.07-2.45,6.74-6.55,8.21-9.41l-1.17-1.94A25.21,25.21,0,0,1,95.45,142.72Z"/><path class="cls-31" d="M272,142s-5.22,2-14.4-1.31C257.63,140.7,263.45,136.32,272,142Z"/><polygon class="cls-32" points="183.5 199.72 182.36 224.29 250.66 224.29 248.52 198 183.5 199.72"/><path class="cls-33" d="M183.5,199.72l-1.14,24.58H194.9q.69-4.49,1.36-9c0,.18,15.5,2.68,16.92,2.89,10.11,1.5,20.37,2.46,30.6,1.75a52.84,52.84,0,0,0,6.45-1l-1.71-21Z"/><path class="cls-16" d="M194.93,72.37a3.82,3.82,0,0,0-1,.11,3.57,3.57,0,0,0-1.18.64,5.53,5.53,0,0,0-1.11,7,6.22,6.22,0,0,0,6.8,2.52,3.75,3.75,0,0,0,2.53-2,5.17,5.17,0,0,0,.29-2A6.22,6.22,0,0,0,194.93,72.37Z"/><path class="cls-16" d="M241,72.37a3.82,3.82,0,0,1,1,.11,3.57,3.57,0,0,1,1.18.64,5.53,5.53,0,0,1,1.11,7,6.23,6.23,0,0,1-6.81,2.52,3.78,3.78,0,0,1-2.53-2,5.36,5.36,0,0,1-.28-2A6.22,6.22,0,0,1,241,72.37Z"/><path class="cls-27" d="M183.47,106.84s35.48-12.07,66.24,0c0,0,38.78,2,57.52,1.64s20.48,5.38,20.66,8.68-7.81,10.41-25.69,11.28-45.64,3.12-48.42,6.76-3.12,59-1.91,66.47c0,0-31.41,12.84-70.8,0,0,0-.7-59.87-1.39-64.21s-56.46-18.84-62.9-19.29c-17.22-1.18-25-18.42-8-16.66,0,0,20.91,1.49,42.78,3.23S183.47,106.84,183.47,106.84Z"/><path class="cls-34" d="M179.77,129.36c.88.29,1.83.31,2.72.55a16.14,16.14,0,0,1,4.23,2.39,18.32,18.32,0,0,0,8.07,2.78,7.32,7.32,0,0,1,2,.34,6.43,6.43,0,0,1,1.56,1,224.5,224.5,0,0,0,33.3,21.47c4.76,2.51,9.79,4.89,15.17,5.17a5.35,5.35,0,0,0,2.8-.43c1.39-.76,2-2.44,2.4-4a.86.86,0,0,0,0-.77.83.83,0,0,0-.4-.25l-27.48-10.47c-8.18-3.12-16.74-6.5-22.37-13.2-1.55-1.85-3-4-5.28-4.8-1.74-.58-3.64-.22-5.48-.14a17.72,17.72,0,0,1-5.65-.71c-1.77-.53-3.58-1.35-5.46-1.35C177.6,127,177.8,128.72,179.77,129.36Z"/><path class="cls-34" d="M181,140.14s-1.22-10.84-29.88-17.65c-26.89-6.4-46-8.25-51-18.88-3.37,4.36,4.18,13.7,16.7,14.56,6.44.45,62.2,15,62.9,19.29.09.59.19,2.2.28,4.55C180.81,141.34,181.2,140.71,181,140.14Z"/><path class="cls-34" d="M180.16,148.5c.5,18.48.91,53.17.91,53.17l1.29.4c0-.29.94-28.93,1.5-36.86,0,0,30.13,12.87,67.41,5.87,0-1.82,0-3.65.09-5.48C243.48,163.11,195.89,148.28,180.16,148.5Z"/><path class="cls-34" d="M302.2,128.44c17.88-.87,25.86-8,25.69-11.28a7,7,0,0,0-1-3.36c-4.66,13.69-51.61,13.47-65.6,14.49-15.28,1.12-9.08,16.6-9.08,16.6h0c.39-5.19.91-8.84,1.55-9.69C256.56,131.56,284.33,129.3,302.2,128.44Z"/><path class="cls-16" d="M209.29,94.76l-.71,7.49s9.39,5.59,19.15,0L227,94.76Z"/><path class="cls-30" d="M205.42,94.38c7.74,6.52,20.82,6.22,27.24-1.61A26.34,26.34,0,0,0,237,84.23a39.52,39.52,0,0,0,2.07-17.13,24.74,24.74,0,0,0-7.51-15.28A21.11,21.11,0,0,0,209,48.41C193.29,55.75,193,83.89,205.42,94.38Z"/><path class="cls-30" d="M202.78,48.17a9.23,9.23,0,0,1,5.72-4.25,45,45,0,0,1,7.23-1.13c7.1-.9,14.25-3.63,19-9,.2-.23.45-.49.75-.46s.58.46.65.83c.41,2.13-.71,4.15-1.87,5.84a1.75,1.75,0,0,0-.28.52.6.6,0,0,0,.09.55.72.72,0,0,0,.57.2,1.8,1.8,0,0,0,1-.36c.29-.2.43-.57.74-.72a1,1,0,0,1,.38-.09,2.24,2.24,0,0,1,.68,0,.88.88,0,0,1,.6.29c.26.33.18.9.18,1.29a8.47,8.47,0,0,1-.21,1.66,16.19,16.19,0,0,1-1,3.25,39.9,39.9,0,0,1-3.39,5.92c-1.42,2.17-2.92,4.41-5.17,5.7a15.24,15.24,0,0,1-6,1.6c-5,.55-10.21.59-14.58-1.78C204.4,56.17,200.67,52.26,202.78,48.17Z"/><path class="cls-35" d="M205.42,94.38c7.74,6.52,20.82,6.22,27.24-1.61A26.34,26.34,0,0,0,237,84.23c.13-.4.24-.79.36-1.19a30.27,30.27,0,0,1-10.1,4.19,30.77,30.77,0,0,1-20.14-2.62,19.28,19.28,0,0,1-6-4.51,21.17,21.17,0,0,1-3.64-6.72c-.31-.85-.58-1.72-.82-2.59C196.3,79.87,199.32,89.24,205.42,94.38Z"/><path class="cls-16" d="M251.53,158.82c-.11,3.36-3.56,4.65-3.56,4.65-41.86-6-68.29-26-68.29-26-1.63-3-18.78-8.06-22.49-9.12,1.31,5.67,2.67,10.11,2.67,10.11,11.24,16.5,28.43,26,28.43,26,16.94,6,69,10.62,69,3.64C257.28,159.28,251.53,158.82,251.53,158.82Z"/><path class="cls-17" d="M159.86,138.45c11.24,16.5,28.43,26,28.43,26,12.86,4.54,45.94,8.31,61.13,6.8-16.62-1.13-63-5.66-73.49-21.31,0,0-10-11.43,2.29-13.85-4.58-3-17.82-6.88-21-7.79C158.5,134,159.86,138.45,159.86,138.45Z"/><path class="cls-36" d="M200.11,108.65c-.08-2-.62-4.59.58-6.19a7,7,0,0,1,4.75-2.28,22.09,22.09,0,0,1,5.23.55c6.61,1,13.22-1.25,19.84-2.17a6.08,6.08,0,0,1,2.29,0,5.9,5.9,0,0,1,2.1,1.17,9.37,9.37,0,0,1,2.29,2.37,9,9,0,0,1,.9,5.87,20,20,0,0,1-2.13,6.79,39.31,39.31,0,0,1-3.63,5.41c-2.5,3.33-5,6.3-9.05,7.68a14.51,14.51,0,0,1-10.91-.53,19.76,19.76,0,0,1-3.94-2.6,24.79,24.79,0,0,1-6.34-7.38,16.71,16.71,0,0,1-2-8.19C200.12,109,200.11,108.82,200.11,108.65Z"/><path class="cls-37" d="M200.69,102.46c-1.2,1.6-.66,4.23-.58,6.19,0,.17,0,.32,0,.48a16.71,16.71,0,0,0,2,8.19,24.79,24.79,0,0,0,6.34,7.38,19.76,19.76,0,0,0,3.94,2.6,14.51,14.51,0,0,0,10.91.53c4.09-1.38,6.55-4.35,9.05-7.68a39.31,39.31,0,0,0,3.63-5.41c.08-.15.15-.32.22-.47a35.67,35.67,0,0,1-13.41,9.22c-3.26,1.25-7.21,1.93-10-.12-.69-.51-1.31-1.41-.9-2.16.21-.39.64-.6,1-.89s.59-.8.34-1.16c-3.53.85-7.31-1.2-9.32-4.23s-2.5-6.82-2.35-10.45a11.76,11.76,0,0,1,.52-3.18A4.92,4.92,0,0,0,200.69,102.46Z"/><g class="cls-38"><path class="cls-39" d="M173.36,106.3c-3.19,7.9-3.85,19.34-3.94,26,1,.36,2,.72,2.93,1.07.11-10.66,2.92-21.84,4.36-26.88Z"/><path class="cls-39" d="M254,107.05c1.37,4.73,4.14,15.55,4.43,26.08.88-.23,1.86-.46,2.93-.68-.12-6.71-.84-17.61-3.89-25.24Z"/><path class="cls-39" d="M261,107.37a110.14,110.14,0,0,1,4,24.43c.95-.16,1.93-.3,2.94-.45-.11-6.28-.74-16.29-3.34-23.83Z"/><path class="cls-39" d="M166.52,105.85c-2.93,7.18-3.75,17.35-3.94,24.16l2.94,1a114,114,0,0,1,4.33-24.9Z"/></g><path class="cls-16" d="M254.72,134.43a2.11,2.11,0,0,0-.9.79l-.4.8h0c-2.12,4.15-5.4,10.62-6.61,13.12,0,0-11.23-5.86-46.07-19.27a3.94,3.94,0,0,0,.38-1.8c-.09-2.2-1.87-4.23-2.45-6.3a5.41,5.41,0,0,1,.41-3.91,2.56,2.56,0,0,0,.35-.86,1.27,1.27,0,0,0-1.23-1.25,2.3,2.3,0,0,0-1.71.79,4.26,4.26,0,0,0-1.05,4.11,1.41,1.41,0,0,1-1.39-.2,5.14,5.14,0,0,1-1-1.09,27.13,27.13,0,0,0-3.21-3.31l-3.66-3.37c-.64-.58-2.17-2-3.16-1.62-1.56.59,0,2.59.64,3.21l3.21,3.16c.68.68,1.9,2.46.13,2.27a5,5,0,0,1-2.61-1.55,12.18,12.18,0,0,0-3.6-2.31c-1-.44-1.8-1.32-2.87-.63a.59.59,0,0,0-.26.26.7.7,0,0,0,0,.29c.31,1.83,3.13,2.72,4.47,3.77.55.42,3.55,2.76,2.05,3.45a1.61,1.61,0,0,1-1.18-.07,17.93,17.93,0,0,1-2.37-1.26,20.35,20.35,0,0,0-2.34-1.26,3.52,3.52,0,0,0-2.59-.08,1.27,1.27,0,0,0-.73.67c-.27.78.65,1.42,1.41,1.75l5.14,2.16a8.94,8.94,0,0,1,2.47,1c.36.42.15.79-.53.85a9.74,9.74,0,0,1-2.48-.49c-1.42-.29-3-.45-4.19.39a.69.69,0,0,0-.26.3c-.1.31.25.58.55.72,2.88,1.31,6.4.75,9.14,2.33.85.49,1.58,1.15,2.41,1.65a12.39,12.39,0,0,0,5,1.36,9.33,9.33,0,0,0,3.87-.16,4.47,4.47,0,0,0,.46-.19c6.59,6.44,30.27,21.25,48.83,28.36,0,0,1.95,1.06,6.41-2.36s18.93-21.44,22.1-25.89c.46-.63,1.1-1.49,1.82-2.51C259.68,131.8,255.63,134,254.72,134.43Z"/><path class="cls-17" d="M253.22,158.65c3.54-2.71,13.42-14.66,18.91-21.68l-.1-.26s-13.92-3.15-19,.17c-.21.4-.42.83-.64,1.26,1.87.31,7.8,1.64,11.26,6.34,0,0-10.36,18-22.8,12.51-9.24-4.09-27.67-14.3-36.53-19.27,10.12,7.31,27.91,17.69,42.54,23.29C246.81,161,248.76,162.07,253.22,158.65Z"/><path class="cls-22" d="M253.78,135.2a4.28,4.28,0,0,0-.78,1.64c1.56.12,12.54,1.09,19,5.17a41.73,41.73,0,0,0,6.76-11.92C266.44,131.28,255.47,133,253.78,135.2Z"/><path class="cls-19" d="M262.59,135.36a2,2,0,1,1-2-2A2,2,0,0,1,262.59,135.36Z"/><path class="cls-19" d="M275.93,133.13a1.95,1.95,0,1,1-1.95-1.95A1.95,1.95,0,0,1,275.93,133.13Z"/><path class="cls-25" d="M253.78,135.2a4.45,4.45,0,0,0-.73,1.48c.08,0,.22,0,.45,0,.75-.28,1.45-.73,2.22-1a30,30,0,0,1,4.69-1.15,127.18,127.18,0,0,1,17.41-1.92c.34-.79.68-1.62,1-2.47C266.44,131.28,255.47,133,253.78,135.2Z"/></g></g></g></svg>